<svg xmlns="http://www.w3.org/2000/svg" width="24px" height='24px' fill="white" viewBox="0 0 288.05 362.05">

    <g >
        <g >
            <path class="cls-1" d="M2.7,136.47l90.9,65.65S82.38,149.93,53.76,94.94C53.76,94.94,9.43,116.26,2.7,136.47Z"/>
            <path class="cls-1" d="M6.63,277.31l87,82.5V211.1L2.7,141.51C-5.15,183,6.63,277.31,6.63,277.31Z"/>
            <path class="cls-1"
                  d="M211.45,68.29V11.89A11.59,11.59,0,0,0,198.08.1L70.77,16.1A15.67,15.67,0,0,0,57.41,31.26V90.17s38.72,72.39,48,136.37S97,362.05,97,362.05l168.35-49.66s39.56-57.24,14.31-134.68S211.45,68.29,211.45,68.29Zm-44.06-12-53.3,9.54a13.84,13.84,0,0,1-2.54.22A14.31,14.31,0,0,1,109,37.64l53.31-9.54a14.31,14.31,0,0,1,5,28.17Z"/>
        </g>
    </g>
</svg>
