<svg width="26" height="26" viewBox="0 0 26 26" fill="none" xmlns="http://www.w3.org/2000/svg">
    <path d="M4.0625 3.25V15.4375C4.0625 16.7837 5.15381 17.875 6.5 17.875H8.9375M4.0625 3.25H2.4375M4.0625 3.25H21.9375M21.9375 3.25H23.5625M21.9375 3.25V15.4375C21.9375 16.7837 20.8462 17.875 19.5 17.875H17.0625M8.9375 17.875H17.0625M8.9375 17.875L7.85417 21.125M17.0625 17.875L18.1458 21.125M18.1458 21.125L18.6875 22.75M18.1458 21.125H7.85417M7.85417 21.125L7.3125 22.75M9.75 12.1875V13.8125M13 9.75V13.8125M16.25 7.3125V13.8125"
          stroke="currentColor" stroke-width="1.5" stroke-linecap="round" stroke-linejoin="round"/>
</svg>
