<svg width="26" height="26" viewBox="0 0 26 26" fill="none" xmlns="http://www.w3.org/2000/svg">
    <path d="M12.371 16.4335L18.6875 22.75C19.8093 23.8718 21.6282 23.8718 22.75 22.75C23.8718 21.6282 23.8718 19.8093 22.75 18.6875L16.3836 12.3211M12.371 16.4335L15.0751 13.1499C15.4175 12.7342 15.8753 12.4726 16.3836 12.3211M12.371 16.4335L7.32801 22.5571C6.80373 23.1937 6.02222 23.5625 5.19749 23.5625C3.67319 23.5625 2.4375 22.3268 2.4375 20.8025C2.4375 19.9778 2.80631 19.1963 3.44295 18.672L10.8492 12.5727M16.3836 12.3211C16.9787 12.1436 17.6429 12.1169 18.2714 12.17C18.4085 12.1816 18.5473 12.1875 18.6875 12.1875C21.3799 12.1875 23.5625 10.0049 23.5625 7.3125C23.5625 6.59721 23.4084 5.9179 23.1317 5.30594L19.5825 8.85513C18.3739 8.57767 17.4225 7.62627 17.145 6.41763L20.6943 2.86838C20.0823 2.59159 19.4029 2.4375 18.6875 2.4375C15.9951 2.4375 13.8125 4.62011 13.8125 7.3125C13.8125 7.45267 13.8184 7.59145 13.83 7.72862C13.9285 8.89369 13.7527 10.1816 12.8501 10.9249L12.7395 11.016M10.8492 12.5727L6.40143 8.125H4.875L2.4375 4.0625L4.0625 2.4375L8.125 4.875V6.40143L12.7395 11.016M10.8492 12.5727L12.7395 11.016M19.9062 19.9062L17.0625 17.0625M5.27284 20.7188H5.28096V20.7269H5.27284V20.7188Z"
          stroke="currentColor" stroke-width="1.5" stroke-linecap="round" stroke-linejoin="round"/>
</svg>
