<svg width="16" height="19" viewBox="0 0 16 19" fill="none" xmlns="http://www.w3.org/2000/svg">
    <g clip-path="url(#clip0_1638_55206)">
        <path d="M8 19C10.1217 19 12.1566 18.1571 13.6569 16.6569C15.1571 15.1566 16 13.1217 16 11C16 8.87827 15.1571 6.84344 13.6569 5.34315C12.1566 3.84285 10.1217 3 8 3C5.87827 3 3.84344 3.84285 2.34315 5.34315C0.842855 6.84344 0 8.87827 0 11C0 13.1217 0.842855 15.1566 2.34315 16.6569C3.84344 18.1571 5.87827 19 8 19ZM8.93 9.588L7.93 14.293C7.86 14.633 7.959 14.826 8.234 14.826C8.428 14.826 8.721 14.756 8.92 14.58L8.832 14.996C8.545 15.342 7.912 15.594 7.367 15.594C6.664 15.594 6.365 15.172 6.559 14.275L7.297 10.807C7.361 10.514 7.303 10.408 7.01 10.337L6.559 10.256L6.641 9.875L8.931 9.588H8.93ZM8 8.5C7.73478 8.5 7.48043 8.39464 7.29289 8.20711C7.10536 8.01957 7 7.76522 7 7.5C7 7.23478 7.10536 6.98043 7.29289 6.79289C7.48043 6.60536 7.73478 6.5 8 6.5C8.26522 6.5 8.51957 6.60536 8.70711 6.79289C8.89464 6.98043 9 7.23478 9 7.5C9 7.76522 8.89464 8.01957 8.70711 8.20711C8.51957 8.39464 8.26522 8.5 8 8.5Z" fill="#0891B2"/>
    </g>
    <defs>
        <clipPath id="clip0_1638_55206">
            <rect width="16" height="16" fill="white" transform="translate(0 3)"/>
        </clipPath>
    </defs>
</svg>
