<svg xmlns="http://www.w3.org/2000/svg" height="18" width="18" viewBox="0 0 57.94 57.94"><defs><style>.cls-1{fill:#464646;}</style></defs><title>area</title><g id="Layer_2" ><g id="Capa_1"><path class="cls-1" d="M50.15,9.18l2-2a1,1,0,1,0-1.42-1.42l-2,2A29.11,29.11,0,0,0,12.28,5.25a5,5,0,0,0-7,7,29,29,0,1,0,44.9-3.1ZM6.84,6.84a3,3,0,0,1,4.24,0c.08.08.14.17.21.25l.06.08a3.05,3.05,0,0,1,.58,1.48h0a2.79,2.79,0,0,1,0,.5v.05a3.4,3.4,0,0,1-.08.46l0,.11c0,.13-.08.26-.13.39l-.11.19a2.49,2.49,0,0,1-.15.28,3.65,3.65,0,0,1-.36.44,3.16,3.16,0,0,1-.45.37.05.05,0,0,0,0,0,3.15,3.15,0,0,1-2.18.41H8.35a2.64,2.64,0,0,1-.4-.12l-.24-.09-.16-.08a3,3,0,0,1-.38-.23h0a4,4,0,0,1-.32-.26A3,3,0,0,1,6.84,6.84ZM48.05,48.05A27,27,0,0,1,6.84,13.47a5.92,5.92,0,0,0,.66.25l.11,0a5.18,5.18,0,0,0,.66.14h.12A5.51,5.51,0,0,0,9,14a5.06,5.06,0,0,0,1.4-.22l.28-.09a4.32,4.32,0,0,0,.45-.19,3,3,0,0,0,.4-.21,2.9,2.9,0,0,0,.33-.2,5,5,0,0,0,.67-.56,4.31,4.31,0,0,0,.58-.7l.17-.28.25-.47.16-.39c0-.12.07-.25.11-.37a5.26,5.26,0,0,0,.15-1.85c0-.06,0-.11,0-.17a4.13,4.13,0,0,0-.13-.61c0-.06,0-.12,0-.18a6.37,6.37,0,0,0-.23-.61v0A27.11,27.11,0,0,1,47.31,9.19l-3.54,3.54a22,22,0,1,0,7,18.91A4.86,4.86,0,0,0,53,30.37a5,5,0,0,0,0-7.07,4.91,4.91,0,0,0-3.23-1.43,21.92,21.92,0,0,0-4.57-7.74l3.54-3.54A27,27,0,0,1,48.05,48.05Zm1.42-24.21A3,3,0,0,1,51.59,29a3.09,3.09,0,0,1-1.54.82l-.29,0a3.11,3.11,0,0,1-1.29-.14h0a3.54,3.54,0,0,1-.52-.25l-.07,0a2.74,2.74,0,0,1-.5-.4,3,3,0,0,1,0-4.24,2.92,2.92,0,0,1,1.81-.85l.29,0Zm-1.74-1.68a6,6,0,0,0-.81.39,1.29,1.29,0,0,0-.16.09,5.12,5.12,0,0,0-.83.66,5,5,0,0,0,0,7.07,4.87,4.87,0,0,0,.71.58,2.82,2.82,0,0,0,.29.18,5.21,5.21,0,0,0,.47.24l.41.17.37.1a4.37,4.37,0,0,0,.52.12h0a20,20,0,1,1-6.38-17.63l-4.24,4.25a14,14,0,1,0,1.41,1.41l4.24-4.24a20.14,20.14,0,0,1,4,6.59ZM28.25,29.67a1,1,0,0,0,1.42,0l8.45-8.46A12.07,12.07,0,1,1,36.7,19.8l-8.45,8.45A1,1,0,0,0,28.25,29.67Z"/></g></g></svg>
