<svg xmlns="http://www.w3.org/2000/svg" height="18" width="18" viewBox="0 0 60 60"><defs><style>.cls-1{fill:#464646;}</style></defs><title>adres</title><g id="Layer_2" ><g id="Capa_1" ><path class="cls-1" d="M30,26a7,7,0,1,0-7-7A7,7,0,0,0,30,26Zm0-12a5,5,0,1,1-5,5A5,5,0,0,1,30,14Z"/><path class="cls-1" d="M29.82,54.76,45.16,32.6c5.76-7.67,4.93-20.28-1.78-27a19.17,19.17,0,0,0-27.12,0c-6.7,6.7-7.53,19.31-1.8,27ZM17.68,7A17.18,17.18,0,0,1,42,7c6.05,6.05,6.79,17.44,1.57,24.4L29.82,51.24,16.08,31.4C10.88,24.47,11.63,13.08,17.68,7Z"/><path class="cls-1" d="M42.12,43a1,1,0,1,0-.24,2C52.4,46.23,58,49.57,58,51.5,58,54.21,47.35,58,30,58S2,54.21,2,51.5C2,49.57,7.6,46.23,18.12,45a1,1,0,0,0-.24-2C7.35,44.25,0,47.74,0,51.5,0,55.72,10.31,60,30,60s30-4.28,30-8.5C60,47.74,52.65,44.25,42.12,43Z"/></g></g></svg>
