<svg xmlns="http://www.w3.org/2000/svg" width="20px" height="20px" viewBox="0 0 330 330"><defs><style>.cls-1{fill:#ffd56c;}</style></defs><title>infoYellow</title><g id="Layer_2"><g id="Capa_1" ><path class="cls-1" d="M165,0C74,0,0,74,0,165S74,330,165,330s165-74,165-165S256,0,165,0Zm0,300C90.56,300,30,239.44,30,165S90.56,30,165,30,300,90.56,300,165,239.44,300,165,300Z"/><path class="cls-1" d="M165,70a20,20,0,1,0,20,20A20,20,0,0,0,165,70Z"/><path class="cls-1" d="M165,140a15,15,0,0,0-15,15v90a15,15,0,0,0,30,0V155A15,15,0,0,0,165,140Z"/></g></g></svg>
