<svg xmlns="http://www.w3.org/2000/svg" width="18" height="19" viewBox="0 0 55.01 58"><defs><style>.cls-1{fill:#464646;}</style></defs><title>product-like_1</title><g id="Layer_2" ><g id="Layer_1-2" ><g id="Layer_2-2" ><g id="Capa_1" ><path class="cls-1" d="M8,43a5,5,0,1,0,5,5A5,5,0,0,0,8,43Zm0,8a3,3,0,1,1,3-3A3,3,0,0,1,8,51Z"/><path class="cls-1" d="M55,35a4.23,4.23,0,0,0-2.72-4.23A5,5,0,0,0,49,22H34.63l.73-3.41A34.44,34.44,0,0,0,35.48,7.4C35,3.91,31.87,0,28.51,0h-.24C26.68,0,24,.91,24,7c0,8-2,11.69-3.68,13.36A5.18,5.18,0,0,1,17,22H16V20H0V58H16V56H44a5,5,0,0,0,3.93-8.09,5,5,0,0,0,4-5.84,5.06,5.06,0,0,0-1-2.16A5,5,0,0,0,55,35ZM2,56V22H14V56ZM50,38H39a1,1,0,0,0,0,2h8a3,3,0,0,1,0,6H37a1,1,0,0,0,0,2h7a3,3,0,0,1,0,6H16V24h1a6.84,6.84,0,0,0,4.68-2.15C24.54,19.06,26,14.06,26,7c0-1.87.3-5,2.27-5h.24c2.23,0,4.61,3.13,5,5.69a32.33,32.33,0,0,1-.09,10.48L32.16,24H49a3,3,0,0,1,0,6H39a1,1,0,0,0,0,2h7a35.32,35.32,0,0,1,3.85.19C52.47,32.58,53,33.6,53,35A3,3,0,0,1,50,38Z"/></g></g></g></g></svg>
