<?xml version="1.0" encoding="UTF-8"?>
<svg width="100%" height="100%" viewBox="0 0 315 345" version="1.1" xmlns="http://www.w3.org/2000/svg" xmlns:xlink="http://www.w3.org/1999/xlink">
    <!-- Generator: Sketch 55.1 (78136) - https://sketchapp.com -->
    <title>sms-message</title>
    <desc>Created with Sketch.</desc>
    <g id="Page-1" stroke="none" stroke-width="1" fill="none" fill-rule="evenodd">
        <g id="sms-message" fill-rule="nonzero">
            <path d="M165.871,191.475 L165.871,289.042 L30.168,289.042 L30.168,46.041 L137.61,46.041 C141.27,41.798 145.447,37.8 150.129,34.105 C163.012,23.938 178.703,16.869 195.764,13.335 C194.963,8.787 191.004,5.329 186.227,5.329 L50.686,5.329 L50.686,4.846 C50.686,2.17 48.516,0 45.838,0 L26.129,0 C23.453,0 21.283,2.17 21.283,4.846 L21.283,5.33 L9.811,5.33 C4.459,5.33 0.12,9.67 0.12,15.023 L0.12,334.601 C0.12,339.954 4.46,344.294 9.811,344.294 L186.227,344.294 C191.581,344.294 195.92,339.954 195.92,334.601 L195.92,184.425 C184.221,188.536 173.98,190.547 165.871,191.475 Z M66.598,19.305 L129.442,19.305 L129.442,30.291 L66.598,30.291 L66.598,19.305 Z M98.02,326.361 C92.131,326.361 87.358,321.588 87.358,315.699 C87.358,309.81 92.131,305.037 98.02,305.037 C103.909,305.037 108.682,309.81 108.682,315.699 C108.682,321.588 103.908,326.361 98.02,326.361 Z" id="Shape" fill="#2B2B2B"></path>
            <path d="M224.059,20.127 C174.368,20.127 133.942,52.42 133.942,92.114 C133.942,114.445 147.024,135.599 169.085,149.178 C168.212,153.066 164.954,161.885 152.817,172.128 C151.571,173.18 151.063,174.868 151.522,176.434 C151.981,177.998 153.321,179.145 154.938,179.357 C155.163,179.386 157.238,179.645 160.906,179.645 C171.33,179.645 192.563,177.591 218.48,163.961 C220.353,164.052 222.224,164.098 224.059,164.098 C273.75,164.098 314.176,131.806 314.176,92.114 C314.176,52.42 273.749,20.127 224.059,20.127 Z M183.408,113.934 C177.603,113.934 171.551,111.443 167.609,107.431 L165.048,104.827 L171.079,98.796 L173.683,101.547 C175.9,103.89 179.808,105.465 183.408,105.465 C187.224,105.465 191.681,104.265 191.681,100.881 C191.71,97.579 189.763,96.494 183.056,94.463 C176.974,92.62 168.646,90.098 168.646,80.27 C168.646,72.957 175.064,68.043 184.621,68.043 C188.928,68.043 193.621,69.346 196.869,71.444 L199.918,73.412 L195.465,80.541 L192.324,78.517 C190.465,77.319 187.369,76.514 184.621,76.514 C180.885,76.514 177.115,77.675 177.115,80.27 C177.115,83.321 179.129,84.418 185.592,86.372 C191.77,88.239 200.231,90.797 200.153,100.911 C200.152,108.688 193.424,113.934 183.408,113.934 Z M239.064,113.934 L239.025,88.085 L228.025,109.69 L223.402,109.69 L212.367,88.085 L212.367,113.934 L203.896,113.934 L203.896,68.042 L211.767,68.042 L225.756,95.5 L239.651,68.042 L247.528,68.042 L247.528,113.934 L239.064,113.934 Z M266.324,113.934 C260.521,113.934 254.469,111.443 250.525,107.431 L247.964,104.827 L253.997,98.796 L256.599,101.547 C258.818,103.89 262.726,105.465 266.324,105.465 C270.142,105.465 274.599,104.265 274.599,100.881 C274.626,97.579 272.681,96.494 265.974,94.463 C259.892,92.62 251.564,90.098 251.564,80.27 C251.564,72.957 257.982,68.043 267.537,68.043 C271.846,68.043 276.539,69.346 279.787,71.444 L282.836,73.412 L278.383,80.541 L275.242,78.517 C273.383,77.319 270.287,76.514 267.537,76.514 C263.803,76.514 260.033,77.675 260.033,80.27 C260.033,83.321 262.047,84.418 268.509,86.372 C274.687,88.239 283.148,90.797 283.07,100.911 C283.07,108.688 276.342,113.934 266.324,113.934 Z" id="Shape" fill="#FF5500"></path>
        </g>
    </g>
</svg>
