<svg
        width="18"
        height="18"
        xmlns="http://www.w3.org/2000/svg"
        viewBox="0 0 49.94 47.8">
    <defs>
        <style>.cls-1{fill:#464646;}</style>
    </defs>
    <title>product-fav</title>
    <g id="Layer_2" >
        <g id="Layer_1-2"  >
            <g id="Layer_2-2" >
                <g id="Capa_1" >
                    <path class="cls-1" d="M48.86,21.68a3.57,3.57,0,0,0-2-6.1L34.78,13.82A1.6,1.6,0,0,1,33.59,13L28.18,2a3.58,3.58,0,0,0-6.42,0L16.35,13a1.59,1.59,0,0,1-1.19.87L3.07,15.58a3.59,3.59,0,0,0-2,6.1l8.75,8.53a1.55,1.55,0,0,1,.46,1.4l-2.07,12a3.58,3.58,0,0,0,5.2,3.78L24.22,41.7a1.61,1.61,0,0,1,1.48,0l10.81,5.69a3.59,3.59,0,0,0,5.26-3.17,3.08,3.08,0,0,0-.06-.61l-2.07-12a1.61,1.61,0,0,1,.46-1.4ZM37.68,32l2.07,12a1.58,1.58,0,0,1-2.3,1.67L26.64,40a3.59,3.59,0,0,0-3.34,0L12.49,45.66a1.58,1.58,0,0,1-1.67-.12A1.6,1.6,0,0,1,10.19,44l2.07-12a3.55,3.55,0,0,0-1-3.17L2.48,20.25a1.59,1.59,0,0,1,0-2.24,1.53,1.53,0,0,1,.91-.46L15.45,15.8a3.55,3.55,0,0,0,2.69-2l5.41-11a1.65,1.65,0,0,1,2.87.08l5.4,11a3.62,3.62,0,0,0,2.7,2l12.09,1.75a1.58,1.58,0,0,1,.88,2.7l-8.75,8.53A3.6,3.6,0,0,0,37.68,32Z"/>
                </g>
            </g>
        </g>
    </g>
</svg>
