<svg xmlns="http://www.w3.org/2000/svg" height="18" width="18" viewBox="0 0 58.99 60"><defs><style>.cls-1{fill:#464646;}</style></defs><title>adres-tarif</title><g id="Layer_2"><g id="Capa_1" ><path class="cls-1" d="M20.51,29A11.29,11.29,0,0,0,12,25a11.31,11.31,0,0,0-8.53,4,14.64,14.64,0,0,0,0,18.9L12,57.51l8.52-9.63A14.62,14.62,0,0,0,20.51,29ZM19,46.55l-7,7.94L5,46.55A12.57,12.57,0,0,1,5,30.3,9.33,9.33,0,0,1,12,27a9.33,9.33,0,0,1,7,3.3A12.59,12.59,0,0,1,19,46.55Z"/><path class="cls-1" d="M48.24,24.51l6.46-7.29A11,11,0,0,0,54.7,3,8.45,8.45,0,0,0,41.77,3a11,11,0,0,0,0,14.21Zm-5-20.18a6.47,6.47,0,0,1,9.94,0,8.93,8.93,0,0,1,0,11.56l-5,5.6-5-5.6A8.93,8.93,0,0,1,43.27,4.33Z"/><path class="cls-1" d="M52.1,54.52a1,1,0,0,0-1.2.75,3.44,3.44,0,0,1-.66,1.39,1,1,0,0,0,1.57,1.24,5.47,5.47,0,0,0,1-2.19A1,1,0,0,0,52.1,54.52Z"/><path class="cls-1" d="M31.49,31a3.51,3.51,0,0,1-1.25-.23,1,1,0,0,0-.72,1.87,5.5,5.5,0,0,0,2,.36h.35a1,1,0,1,0,0-2Z"/><path class="cls-1" d="M29.11,24.68a1,1,0,0,0,.53-.15A3.5,3.5,0,0,1,31.1,24a1,1,0,0,0,.88-1.1,1,1,0,0,0-1.1-.89,5.37,5.37,0,0,0-2.3.8,1,1,0,0,0-.32,1.38A1,1,0,0,0,29.11,24.68Z"/><path class="cls-1" d="M17.56,58h-2a1,1,0,0,0,0,2h2a1,1,0,1,0,0-2Z"/><path class="cls-1" d="M35.49,40h-.26a1,1,0,0,0-1,1,1,1,0,0,0,1,1h2a1,1,0,1,0,0-2Z"/><path class="cls-1" d="M35,24h2a1,1,0,0,0,0-2H35a1,1,0,0,0,0,2Z"/><path class="cls-1" d="M47.27,40a1,1,0,0,0,0,2h2a1,1,0,1,0,0-2Z"/><path class="cls-1" d="M50.84,32a1,1,0,0,0-1-1h-2a1,1,0,0,0,0,2h2A1,1,0,0,0,50.84,32Z"/><path class="cls-1" d="M41.27,42h2a1,1,0,1,0,0-2h-2a1,1,0,0,0,0,2Z"/><path class="cls-1" d="M43,24a1,1,0,1,0,0-2H41a1,1,0,0,0,0,2Z"/><path class="cls-1" d="M35.84,31a1,1,0,0,0,0,2h2a1,1,0,0,0,0-2Z"/><path class="cls-1" d="M44.84,32a1,1,0,0,0-1-1h-2a1,1,0,0,0,0,2h2A1,1,0,0,0,44.84,32Z"/><path class="cls-1" d="M58.92,35.63a1,1,0,1,0-2,.32,3.23,3.23,0,0,1-.1,1.54,1,1,0,0,0,.68,1.24,1,1,0,0,0,.28,0,1,1,0,0,0,1-.72A5.37,5.37,0,0,0,59,36.51,5.22,5.22,0,0,0,58.92,35.63Z"/><path class="cls-1" d="M41.56,58h-2a1,1,0,0,0,0,2h2a1,1,0,0,0,0-2Z"/><path class="cls-1" d="M35.56,58h-2a1,1,0,0,0,0,2h2a1,1,0,0,0,0-2Z"/><path class="cls-1" d="M46.56,50a1,1,0,0,0-1-1h-2a1,1,0,0,0,0,2h2A1,1,0,0,0,46.56,50Z"/><path class="cls-1" d="M40.56,50a1,1,0,0,0-1-1h-2a1,1,0,0,0,0,2h2A1,1,0,0,0,40.56,50Z"/><path class="cls-1" d="M47.49,58H45.56a1,1,0,0,0,0,2h2l0-1v1a1,1,0,0,0,1-1A1,1,0,0,0,47.49,58Z"/><path class="cls-1" d="M51,52.72a1,1,0,0,0,.79-1.62,5.47,5.47,0,0,0-1.88-1.53,1,1,0,0,0-1.34.45A1,1,0,0,0,49,51.36a3.55,3.55,0,0,1,1.2,1A1,1,0,0,0,51,52.72Z"/><path class="cls-1" d="M54.84,39.73a3.46,3.46,0,0,1-1.35.27h-.22a1,1,0,0,0,0,2h.22a5.32,5.32,0,0,0,2.12-.43,1,1,0,1,0-.77-1.84Z"/><path class="cls-1" d="M27.52,29.85a1,1,0,0,0,.64-1.26A3.65,3.65,0,0,1,28,27.5c0-.15,0-.3,0-.44a1,1,0,1,0-2-.25,5.12,5.12,0,0,0,0,.69,5.53,5.53,0,0,0,.27,1.72,1,1,0,0,0,.95.69A.85.85,0,0,0,27.52,29.85Z"/><path class="cls-1" d="M23.56,58h-2a1,1,0,0,0,0,2h2a1,1,0,1,0,0-2Z"/><path class="cls-1" d="M33.62,50.59a1,1,0,0,0,.91-.58,1,1,0,0,0-.5-1.32,3.64,3.64,0,0,1-1.23-.94,1,1,0,0,0-1.4-.12A1,1,0,0,0,31.27,49,5.52,5.52,0,0,0,33.2,50.5,1,1,0,0,0,33.62,50.59Z"/><path class="cls-1" d="M56.24,31.74A5.34,5.34,0,0,0,53.92,31a1,1,0,0,0-.15,2,3.51,3.51,0,0,1,1.47.46,1,1,0,0,0,1-1.73Z"/><path class="cls-1" d="M29.56,58h-2a1,1,0,0,0,0,2h2a1,1,0,1,0,0-2Z"/><path class="cls-1" d="M32.05,44.84a3.37,3.37,0,0,1,.62-1.41,1,1,0,0,0-.22-1.4,1,1,0,0,0-1.39.21,5.54,5.54,0,0,0-1,2.22,1,1,0,0,0,.8,1.17.58.58,0,0,0,.19,0A1,1,0,0,0,32.05,44.84Z"/><path class="cls-1" d="M48.49,15A5.5,5.5,0,1,0,43,9.5,5.51,5.51,0,0,0,48.49,15Zm0-9A3.5,3.5,0,1,1,45,9.5,3.5,3.5,0,0,1,48.49,6Z"/><path class="cls-1" d="M12,31a6,6,0,1,0,6,6A6,6,0,0,0,12,31Zm0,10a4,4,0,1,1,4-4A4,4,0,0,1,12,41Z"/></g></g></svg>
