<svg width="14" height="14" viewBox="0 0 14 14" fill="none" xmlns="http://www.w3.org/2000/svg">
    <path fill-rule="evenodd" clip-rule="evenodd" d="M7 2.1875C7.24162 2.1875 7.4375 2.38338 7.4375 2.625V6.5625H11.375C11.6166 6.5625 11.8125 6.75838 11.8125 7C11.8125 7.24162 11.6166 7.4375 11.375 7.4375H7.4375V11.375C7.4375 11.6166 7.24162 11.8125 7 11.8125C6.75838 11.8125 6.5625 11.6166 6.5625 11.375V7.4375H2.625C2.38338 7.4375 2.1875 7.24162 2.1875 7C2.1875 6.75837 2.38338 6.5625 2.625 6.5625H6.5625V2.625C6.5625 2.38338 6.75838 2.1875 7 2.1875Z"
          fill="currentColor"/>
</svg>
