<svg width="14" height="15" viewBox="0 0 14 15" fill="none" xmlns="http://www.w3.org/2000/svg">
    <path d="M7 4V11M5.25 9.35606L5.76268 9.74058C6.44607 10.2531 7.55406 10.2531 8.23746 9.74058C8.92085 9.22801 8.92085 8.39699 8.23746 7.88442C7.89573 7.62812 7.44783 7.49997 6.99993 7.5C6.57706 7.50003 6.15428 7.3719 5.83164 7.11559C5.18641 6.60303 5.18642 5.772 5.83164 5.25944C6.47686 4.74688 7.52298 4.74688 8.1682 5.25944L8.41022 5.4517M12.25 7.5C12.25 10.3995 9.89949 12.75 7 12.75C4.10051 12.75 1.75 10.3995 1.75 7.5C1.75 4.60051 4.10051 2.25 7 2.25C9.89949 2.25 12.25 4.60051 12.25 7.5Z" stroke="#4B5563" stroke-linecap="round" stroke-linejoin="round"/>
</svg>
