<svg width="14" height="14" viewBox="0 0 14 14" fill="none" xmlns="http://www.w3.org/2000/svg">
    <g clip-path="url(#clip0_1682_42532)">
        <path d="M7.69432 5.06825C7.95624 5.19337 8.20171 5.3644 8.41866 5.58134C9.44378 6.60647 9.44378 8.26853 8.41866 9.29365L5.79366 11.9187C4.76853 12.9438 3.10647 12.9438 2.08134 11.9187C1.05622 10.8935 1.05622 9.23147 2.08134 8.20635L3.10624 7.18145M10.8938 6.81856L11.9187 5.79366C12.9438 4.76853 12.9438 3.10647 11.9187 2.08134C10.8935 1.05622 9.23147 1.05622 8.20635 2.08134L5.58134 4.70635C4.55622 5.73147 4.55622 7.39353 5.58134 8.41866C5.79829 8.6356 6.04376 8.80663 6.30568 8.93176" stroke="#111827" stroke-linecap="round" stroke-linejoin="round"/>
    </g>
    <defs>
        <clipPath id="clip0_1682_42532">
            <rect width="14" height="14" fill="white"/>
        </clipPath>
    </defs>
</svg>
