<svg width="14" height="15" viewBox="0 0 14 15" fill="none" xmlns="http://www.w3.org/2000/svg">
    <path d="M10.4892 11.4228C9.6904 10.3685 8.42473 9.6875 7 9.6875C5.57527 9.6875 4.3096 10.3685 3.51077 11.4228M10.4892 11.4228C11.5695 10.4612 12.25 9.06007 12.25 7.5C12.25 4.60051 9.89949 2.25 7 2.25C4.10051 2.25 1.75 4.60051 1.75 7.5C1.75 9.06007 2.43046 10.4612 3.51077 11.4228M10.4892 11.4228C9.5617 12.2484 8.33943 12.75 7 12.75C5.66057 12.75 4.4383 12.2484 3.51077 11.4228M8.75 6.1875C8.75 7.154 7.9665 7.9375 7 7.9375C6.0335 7.9375 5.25 7.154 5.25 6.1875C5.25 5.221 6.0335 4.4375 7 4.4375C7.9665 4.4375 8.75 5.221 8.75 6.1875Z" stroke="#4B5563" stroke-linecap="round" stroke-linejoin="round"/>
</svg>
