<svg width="26" height="26" viewBox="0 0 26 26" fill="none" xmlns="http://www.w3.org/2000/svg">
    <path fill-rule="evenodd" clip-rule="evenodd"
          d="M8.125 5.6875C8.125 3.89257 9.58007 2.4375 11.375 2.4375H14.625C16.4199 2.4375 17.875 3.89257 17.875 5.6875V5.90956C18.8852 6.00203 19.8872 6.12296 20.8802 6.27154C22.4554 6.50724 23.5625 7.8776 23.5625 9.43116V12.7171C23.5625 14.0292 22.7677 15.2655 21.4649 15.6987C18.803 16.5837 15.9566 17.0625 13 17.0625C10.0434 17.0625 7.19704 16.5837 4.53512 15.6986C3.23228 15.2655 2.4375 14.0292 2.4375 12.7171V9.43116C2.4375 7.8776 3.54457 6.50724 5.11979 6.27155C6.11282 6.12296 7.11483 6.00203 8.125 5.90956V5.6875ZM16.25 5.6875V5.78589C15.175 5.72061 14.0913 5.6875 13 5.6875C11.9087 5.6875 10.825 5.72061 9.75 5.78589V5.6875C9.75 4.79004 10.4775 4.0625 11.375 4.0625H14.625C15.5225 4.0625 16.25 4.79004 16.25 5.6875ZM13 14.625C13.4487 14.625 13.8125 14.2612 13.8125 13.8125C13.8125 13.3638 13.4487 13 13 13C12.5513 13 12.1875 13.3638 12.1875 13.8125C12.1875 14.2612 12.5513 14.625 13 14.625Z"
          fill="currentColor"/>
    <path d="M3.25 19.9333V16.9043C3.49162 17.0368 3.74939 17.1499 4.02245 17.2407C6.84761 18.1799 9.86701 18.6875 13 18.6875C16.133 18.6875 19.1524 18.1799 21.9775 17.2407C22.2506 17.1499 22.5084 17.0368 22.75 16.9043V19.9333C22.75 21.5062 21.6155 22.8881 20.0166 23.1004C17.7207 23.4052 15.3785 23.5625 13 23.5625C10.6215 23.5625 8.27934 23.4052 5.9834 23.1004C4.38451 22.8881 3.25 21.5062 3.25 19.9333Z"
          fill="currentColor"/>
</svg>
