<svg width="26" height="26" viewBox="0 0 26 26" fill="none" xmlns="http://www.w3.org/2000/svg">
    <path d="M16.8896 15.5671C17.0027 16.0472 17.0625 16.5479 17.0625 17.0625C17.0625 20.6524 14.1524 23.5625 10.5625 23.5625V18.3629M16.8896 15.5671C20.9348 12.6112 23.5625 7.83113 23.5625 2.4375C18.1691 2.43773 13.3894 5.06551 10.4338 9.11056M16.8896 15.5671C15.0387 16.9196 12.891 17.8902 10.5625 18.3629M10.4338 9.11056C9.95342 8.99738 9.45245 8.9375 8.9375 8.9375C5.34765 8.9375 2.4375 11.8476 2.4375 15.4375H7.63828M10.4338 9.11056C9.08142 10.9615 8.11093 13.1091 7.63828 15.4375M10.5625 18.3629C10.4505 18.3856 10.338 18.4072 10.2252 18.4276C9.24268 17.6486 8.3524 16.7583 7.57336 15.7758C7.59383 15.6626 7.61548 15.5498 7.63828 15.4375M5.2129 18.0275C4.02148 18.9163 3.25 20.3368 3.25 21.9375C3.25 22.1941 3.26983 22.4461 3.30803 22.692C3.55392 22.7302 3.8059 22.75 4.0625 22.75C5.66321 22.75 7.08373 21.9785 7.97252 20.7871M17.875 9.75C17.875 10.6475 17.1475 11.375 16.25 11.375C15.3525 11.375 14.625 10.6475 14.625 9.75C14.625 8.85254 15.3525 8.125 16.25 8.125C17.1475 8.125 17.875 8.85254 17.875 9.75Z"
          stroke="currentColor" stroke-width="1.5" stroke-linecap="round" stroke-linejoin="round"/>
</svg>
