<svg width="26" height="26" viewBox="0 0 26 26" fill="none" xmlns="http://www.w3.org/2000/svg">
    <path d="M16.25 20.7215C17.1523 20.9842 18.1066 21.125 19.0937 21.125C20.6957 21.125 22.2111 20.7541 23.5586 20.0935C23.5612 20.0314 23.5624 19.969 23.5624 19.9062C23.5624 17.4382 21.5617 15.4375 19.0937 15.4375C17.5575 15.4375 16.2024 16.2126 15.398 17.3931M16.25 20.7215V20.7188C16.25 19.5131 15.9411 18.3796 15.398 17.3931M16.25 20.7215C16.25 20.7601 16.2496 20.7987 16.249 20.8372C14.2321 22.0515 11.8695 22.75 9.34375 22.75C6.81799 22.75 4.45536 22.0515 2.4385 20.8372C2.43783 20.7978 2.4375 20.7583 2.4375 20.7188C2.4375 16.9045 5.52953 13.8125 9.34375 13.8125C11.9523 13.8125 14.2231 15.2587 15.398 17.3931M13 6.90625C13 8.92554 11.363 10.5625 9.34375 10.5625C7.32446 10.5625 5.6875 8.92554 5.6875 6.90625C5.6875 4.88696 7.32446 3.25 9.34375 3.25C11.363 3.25 13 4.88696 13 6.90625ZM21.9375 9.34375C21.9375 10.9143 20.6643 12.1875 19.0938 12.1875C17.5232 12.1875 16.25 10.9143 16.25 9.34375C16.25 7.77319 17.5232 6.5 19.0938 6.5C20.6643 6.5 21.9375 7.77319 21.9375 9.34375Z"
          stroke="currentColor" stroke-width="1.5" stroke-linecap="round" stroke-linejoin="round"/>
</svg>
