<svg width="26" height="26" viewBox="0 0 26 26" fill="none" xmlns="http://www.w3.org/2000/svg">
    <path d="M12.4374 3.79027C12.6455 3.2898 13.3545 3.2898 13.5626 3.79027L15.8658 9.32768C15.9535 9.53867 16.152 9.68283 16.3797 9.70109L22.3578 10.1804C22.8981 10.2237 23.1172 10.8979 22.7056 11.2506L18.1509 15.1521C17.9773 15.3008 17.9016 15.5341 17.9546 15.7563L19.3461 21.5899C19.4719 22.1172 18.8983 22.5339 18.4357 22.2514L13.3176 19.1253C13.1226 19.0062 12.8774 19.0062 12.6824 19.1253L7.56427 22.2514C7.1017 22.5339 6.52812 22.1172 6.65389 21.5899L8.04542 15.7563C8.09844 15.5341 8.02265 15.3008 7.84911 15.1521L3.29442 11.2506C2.88277 10.8979 3.10185 10.2237 3.64216 10.1804L9.62026 9.70109C9.84804 9.68283 10.0465 9.53867 10.1342 9.32768L12.4374 3.79027Z"
          stroke="currentColor" stroke-width="1.5" stroke-linecap="round" stroke-linejoin="round"/>
</svg>
