<svg width="130" height="24" viewBox="0 0 130 24" fill="none" xmlns="http://www.w3.org/2000/svg">
    <path d="M17.6847 11.3974C17.4062 12.5369 15.7834 12.5619 15.4695 11.4315L14.472 7.8388C14.3352 7.34592 13.8837 7.00449 13.3689 7.00449H10.6263C10.1115 7.00449 9.66003 7.34592 9.52318 7.8388L8.52567 11.4315C8.21181 12.5619 6.58898 12.5369 6.31056 11.3974L5.44942 7.8729C5.32491 7.36331 4.86544 7.00449 4.33741 7.00449H1.14505C0.375915 7.00449 -0.174199 7.74298 0.0508547 8.47338L4.25263 22.1099C4.39981 22.5876 4.84383 22.9138 5.34682 22.9138H8.82575C9.33753 22.9138 9.78708 22.5763 9.92665 22.0873L10.8967 18.6888C11.2112 17.5868 12.784 17.5868 13.0985 18.6888L14.0686 22.0873C14.2081 22.5763 14.6577 22.9138 15.1695 22.9138H18.6484C19.1514 22.9138 19.5954 22.5876 19.7426 22.1099L23.9444 8.47338C24.1694 7.74299 23.6193 7.00449 22.8502 7.00449H19.6578C19.1298 7.00449 18.6703 7.36331 18.5458 7.8729L17.6847 11.3974Z" fill="#164E63"/>
    <path d="M33.3493 23.3592C35.7523 23.3592 37.7708 22.5638 39.4048 20.941C41.0709 19.3183 41.9039 17.3137 41.9039 14.9591C41.9039 12.6046 41.0709 10.6318 39.4048 9.00906C37.7708 7.38631 35.7523 6.55903 33.3493 6.55903C30.9784 6.55903 28.9599 7.38631 27.2938 9.00906C25.6277 10.6318 24.7947 12.6046 24.7947 14.9591C24.7947 17.3137 25.6277 19.3183 27.2938 20.941C28.9599 22.5638 30.9784 23.3592 33.3493 23.3592ZM33.3493 18.2683C31.523 18.2683 30.1453 16.9001 30.1453 14.9591C30.1453 13.0182 31.523 11.65 33.3493 11.65C35.2396 11.65 36.5853 13.0182 36.5853 14.9591C36.5853 16.9001 35.2396 18.2683 33.3493 18.2683Z" fill="#164E63"/>
    <path d="M62.6338 6.55903C61.2537 6.55903 60.0902 6.88155 59.1323 7.53725C58.4938 7.9744 57.5495 7.91889 56.9288 7.45704C56.12 6.85524 55.1029 6.55903 53.887 6.55903C52.4412 6.55903 51.2578 6.93129 50.3368 7.69004C50.0575 7.92007 49.5616 7.74047 49.5616 7.38017C49.5616 7.17269 49.3923 7.00449 49.1833 7.00449H45.3873C44.7554 7.00449 44.243 7.51326 44.243 8.14087V21.7774C44.243 22.405 44.7554 22.9138 45.3873 22.9138H48.4174C49.0493 22.9138 49.5616 22.405 49.5616 21.7774V14.2273C49.5616 12.5727 50.3306 11.5545 51.7724 11.5545C53.118 11.5545 53.7909 12.2864 53.7909 13.7818V21.7774C53.7909 22.405 54.3032 22.9138 54.9351 22.9138H57.9652C58.5971 22.9138 59.1095 22.405 59.1095 21.7774V14.2273C59.1095 12.5727 59.8784 11.5545 61.3202 11.5545C62.6338 11.5545 63.3067 12.2864 63.3067 13.7818V21.7774C63.3067 22.405 63.819 22.9138 64.4509 22.9138H67.513C68.145 22.9138 68.6573 22.405 68.6573 21.7774V13.1773C68.6573 9.07269 66.3504 6.55903 62.6338 6.55903Z" fill="#164E63"/>
    <path d="M81.3951 6.55903C80.6776 6.55903 80.0205 6.64479 79.4224 6.81632C78.3995 7.10964 76.8454 6.43395 76.8454 5.37661V1.77715C76.8454 1.14955 76.3331 0.640778 75.7011 0.640778H72.6711C72.0391 0.640778 71.5268 1.14955 71.5268 1.77715V21.7774C71.5268 22.405 72.0391 22.9138 72.6711 22.9138H76.4493C76.6681 22.9138 76.8454 22.7376 76.8454 22.5204C76.8454 22.1543 77.3293 21.9664 77.6189 22.1928C78.6138 22.9704 79.8674 23.3592 81.3951 23.3592C83.5417 23.3592 85.3039 22.5638 86.7457 20.9728C88.1875 19.3501 88.9244 17.3455 88.9244 14.9591C88.9244 12.5727 88.1875 10.5682 86.7457 8.97724C85.3039 7.35449 83.5417 6.55903 81.3951 6.55903ZM77.7746 17.4728C77.1658 16.8364 76.8454 16.0091 76.8454 14.9591C76.8454 13.9091 77.1658 13.0818 77.7746 12.4455C78.3833 11.8091 79.2164 11.4909 80.2096 11.4909C81.2028 11.4909 82.0358 11.8091 82.6446 12.4455C83.2534 13.0818 83.5738 13.9091 83.5738 14.9591C83.5738 16.0091 83.2534 16.8364 82.6446 17.4728C82.0358 18.1092 81.2028 18.4273 80.2096 18.4273C79.2164 18.4273 78.3833 18.1092 77.7746 17.4728Z" fill="#164E63"/>
    <path d="M102.549 7.39789C102.549 7.76393 102.065 7.95182 101.775 7.72543C100.78 6.94783 99.5268 6.55903 97.9991 6.55903C95.8525 6.55903 94.0582 7.35449 92.6165 8.97724C91.1747 10.5682 90.4698 12.5727 90.4698 14.9591C90.4698 17.3455 91.1747 19.3501 92.6165 20.9728C94.0582 22.5638 95.8525 23.3592 97.9991 23.3592C99.5268 23.3592 100.78 22.9704 101.775 22.1928C102.065 21.9664 102.549 22.1543 102.549 22.5204C102.549 22.7376 102.726 22.9138 102.945 22.9138H106.723C107.355 22.9138 107.867 22.405 107.867 21.7774V8.14087C107.867 7.51326 107.355 7.00449 106.723 7.00449H102.945C102.726 7.00449 102.549 7.18062 102.549 7.39789ZM96.7496 17.4728C96.1408 16.8364 95.8204 16.0091 95.8204 14.9591C95.8204 13.9091 96.1408 13.0818 96.7496 12.4455C97.3583 11.8091 98.1914 11.4909 99.1846 11.4909C100.178 11.4909 101.011 11.8091 101.62 12.4455C102.228 13.0818 102.549 13.9091 102.549 14.9591C102.549 16.0091 102.228 16.8364 101.62 17.4728C101.011 18.1092 100.178 18.4273 99.1846 18.4273C98.1914 18.4273 97.3583 18.1092 96.7496 17.4728Z" fill="#164E63"/>
    <path d="M120.883 8.14087C120.883 7.51326 120.371 7.00449 119.739 7.00449H118.695C118.063 7.00449 117.551 6.49572 117.551 5.86811V4.07898C117.551 3.31724 116.811 2.7712 116.077 2.99089L113.047 3.89725C112.563 4.04185 112.232 4.48397 112.232 4.98534V5.86811C112.232 6.49572 111.72 7.00449 111.088 7.00449H110.974C110.342 7.00449 109.829 7.51326 109.829 8.14087V10.9273C109.829 11.5549 110.342 12.0636 110.974 12.0636H111.088C111.72 12.0636 112.232 12.5724 112.232 13.2V16.8046C112.232 19.3183 112.873 21.0683 114.155 22.0547C115.324 22.9046 117.231 23.2248 119.874 23.0152C120.45 22.9695 120.883 22.4815 120.883 21.9068V19.3396C120.883 18.6882 120.332 18.1817 119.677 18.1731C118.162 18.1532 117.551 17.8132 117.551 16.6773V13.2C117.551 12.5724 118.063 12.0636 118.695 12.0636H119.739C120.371 12.0636 120.883 11.5549 120.883 10.9273V8.14087Z" fill="#164E63"/>
    <path d="M126.668 23.3592C128.494 23.3592 130 21.8638 130 20.0501C130 18.2364 128.494 16.741 126.668 16.741C124.842 16.741 123.304 18.2364 123.304 20.0501C123.304 21.8638 124.778 23.3592 126.668 23.3592Z" fill="#06B6D4"/>
</svg>
