<svg width="130" height="20" viewBox="0 0 130 20" fill="none" xmlns="http://www.w3.org/2000/svg">
    <path d="M3.90908 0.39604L8.43677 12.7864L13.2277 0.876945L17.558 12.7298L22.4805 0.39604H24.9023L17.887 19.8586H16.3997L12.7407 9.85856L8.64736 19.8586H7.16007L0 0.39604H3.90908Z" fill="#111827"/>
    <path d="M37.2087 20C35.8047 20 34.4973 19.7501 33.2864 19.2504C32.0755 18.7506 31.0226 18.0528 30.1276 17.157C29.2413 16.2518 28.5438 15.1815 28.0348 13.9463C27.5259 12.7016 27.2714 11.339 27.2714 9.85856C27.2714 8.40641 27.5259 7.07685 28.0348 5.86987C28.5438 4.65347 29.2413 3.6115 30.1276 2.74399C31.0226 1.87647 32.0755 1.20226 33.2864 0.721358C34.4973 0.240453 35.8047 0 37.2087 0C38.6126 0 39.92 0.245167 41.1309 0.735502C42.3418 1.21641 43.3948 1.89062 44.2898 2.75813C45.1848 3.62565 45.8867 4.66289 46.3957 5.86987C46.9046 7.06742 47.1591 8.38284 47.1591 9.81612C47.1591 11.3437 46.9046 12.7346 46.3957 13.9887C45.8867 15.2428 45.1848 16.3178 44.2898 17.2136C43.3948 18.1 42.3418 18.7883 41.1309 19.2786C39.92 19.7595 38.6126 20 37.2087 20ZM37.2087 18.3876C38.1212 18.3876 38.9241 18.1754 39.6173 17.7511C40.3193 17.3173 40.9072 16.7232 41.381 15.9689C41.8548 15.2145 42.2102 14.3187 42.4471 13.2815C42.6928 12.2348 42.8156 11.0938 42.8156 9.85856C42.8156 8.64215 42.6928 7.52947 42.4471 6.52051C42.2102 5.51155 41.8548 4.64404 41.381 3.91796C40.9072 3.19189 40.3193 2.62612 39.6173 2.22065C38.9241 1.81518 38.1212 1.61245 37.2087 1.61245C36.2873 1.61245 35.4757 1.81518 34.7737 2.22065C34.0805 2.62612 33.497 3.19189 33.0232 3.91796C32.5581 4.64404 32.2028 5.51155 31.9571 6.52051C31.7202 7.52947 31.6017 8.64215 31.6017 9.85856C31.6017 11.0938 31.7202 12.2348 31.9571 13.2815C32.2028 14.3187 32.5581 15.2145 33.0232 15.9689C33.497 16.7232 34.0805 17.3173 34.7737 17.7511C35.4757 18.1754 36.2873 18.3876 37.2087 18.3876Z" fill="#111827"/>
    <path d="M51.6078 0.39604H55.3721L61.5977 13.5644L68.0996 0.39604H71.7718V19.5757H67.9285V5.88402L61.5977 19.5757H60.3868L53.8585 5.91231V19.5757H51.6078V0.39604Z" fill="#111827"/>
    <path d="M76.7996 0.39604H84.1966C85.1882 0.39604 86.0919 0.513909 86.908 0.749646C87.7328 0.985384 88.4391 1.32013 89.027 1.75389C89.6237 2.17822 90.0844 2.69213 90.409 3.29562C90.7425 3.8991 90.9092 4.5686 90.9092 5.3041C90.9092 5.77558 90.8653 6.20934 90.7776 6.60538C90.6898 6.99199 90.545 7.35502 90.3432 7.69448C90.1502 8.03395 89.8869 8.35926 89.5535 8.67044C89.2201 8.97218 88.8121 9.27393 88.3295 9.57567H88.3821C88.8823 9.7454 89.3385 9.98114 89.7509 10.2829C90.1721 10.5752 90.5319 10.9194 90.8302 11.3154C91.1373 11.7115 91.3742 12.1546 91.541 12.645C91.7165 13.1353 91.8042 13.6587 91.8042 14.215C91.8042 14.9694 91.6463 15.6719 91.3304 16.3225C91.0233 16.9731 90.5845 17.5389 90.0142 18.0198C89.4526 18.5007 88.7726 18.8826 87.9741 19.1655C87.1844 19.4389 86.3025 19.5757 85.3285 19.5757H76.7996V0.39604ZM80.6561 8.71287H83.8018C84.3107 8.71287 84.7626 8.63744 85.1574 8.48656C85.5611 8.32626 85.8989 8.10938 86.1709 7.83593C86.4429 7.55304 86.6491 7.21829 86.7895 6.83168C86.9299 6.44507 87.0001 6.02546 87.0001 5.57284C87.0001 5.07308 86.9124 4.61575 86.7369 4.20085C86.5614 3.78595 86.2894 3.43234 85.9208 3.14003C85.5611 2.83828 85.1004 2.60726 84.5388 2.44696C83.986 2.27723 83.3236 2.19236 82.5514 2.19236H80.6561V8.71287ZM80.6561 17.6096H83.3411C84.0957 17.6096 84.745 17.5295 85.2891 17.3692C85.8419 17.1994 86.2981 16.9731 86.6579 16.6902C87.0177 16.3979 87.2853 16.0537 87.4608 15.6577C87.6363 15.2522 87.724 14.8138 87.724 14.3423C87.724 13.8048 87.645 13.3098 87.4871 12.8571C87.3292 12.3951 87.0703 11.9943 86.7105 11.6549C86.3508 11.3154 85.8813 11.0514 85.3022 10.8628C84.7231 10.6742 84.0124 10.5799 83.17 10.5799H80.6561V17.6096Z" fill="#111827"/>
    <path d="M104.005 0L112.376 19.5757H108.375L106.138 14.3423H98.7274L96.3845 19.5757H93.8838L102.584 0H104.005ZM99.5566 12.5601H105.4L102.755 6.36492H102.281L99.5566 12.5601Z" fill="#111827"/>
    <path d="M130 0.39604V2.03678H123.827V19.5757H119.984V2.03678H113.798V0.39604H130Z" fill="#111827"/>
</svg>
