<svg width="12" height="12" viewBox="0 0 12 12" fill="none" xmlns="http://www.w3.org/2000/svg">
    <g clip-path="url(#clip0_1323_55929)">
        <path d="M6.26659 6.29594L6.26665 6.29613C6.39769 6.68915 6.61848 7.04624 6.9115 7.33911C7.20449 7.63194 7.56166 7.85251 7.95469 7.98334C7.95474 7.98336 7.95479 7.98337 7.95484 7.98339L8.75484 8.24992L7.95401 8.51658L7.95383 8.51665C7.56081 8.64769 7.20371 8.86847 6.91085 9.1615C6.61802 9.45449 6.39745 9.81165 6.26661 10.2047C6.2666 10.2047 6.26658 10.2048 6.26657 10.2048L6.00004 11.0048L5.73337 10.204L5.73333 10.2039C5.60238 9.81097 5.38174 9.45394 5.08888 9.16108C4.79602 8.86822 4.43899 8.64757 4.04607 8.51662L4.04595 8.51658L3.24529 8.24998L4.04595 7.98337L4.04607 7.98333C4.43899 7.85238 4.79602 7.63173 5.08888 7.33887C5.38174 7.04601 5.60238 6.68898 5.73333 6.29606L5.73337 6.29594L5.99998 5.49529L6.26659 6.29594ZM2.59455 2.59455C2.77166 2.41744 2.90964 2.20557 3 1.97265C3.1831 2.4441 3.55586 2.81686 4.0273 2.99996C3.79439 3.09032 3.58251 3.2283 3.40541 3.4054C3.22831 3.5825 3.09034 3.79435 2.99998 4.02725C2.90961 3.79435 2.77165 3.5825 2.59455 3.4054C2.41746 3.22831 2.2056 3.09034 1.97271 2.99998C2.2056 2.90961 2.41746 2.77164 2.59455 2.59455ZM8.25036 1.16706C8.34128 1.29649 8.45403 1.40918 8.58351 1.50004C8.51902 1.54531 8.45836 1.59621 8.40229 1.65228C8.34619 1.70838 8.29527 1.76907 8.24998 1.8336C8.20469 1.76907 8.15377 1.70838 8.09767 1.65228C8.04171 1.59632 7.98118 1.54551 7.91682 1.5003C8.04646 1.4094 8.15934 1.29662 8.25036 1.16706Z" fill="currentColor" stroke="currentColor"/>
    </g>
    <defs>
        <clipPath id="clip0_1323_55929">
            <rect width="12" height="12" fill="white"/>
        </clipPath>
    </defs>
</svg>
