<?xml version="1.0" encoding="UTF-8"?>
<svg width="100%" height="100%" viewBox="0 0 256 256" version="1.1" xmlns="http://www.w3.org/2000/svg" xmlns:xlink="http://www.w3.org/1999/xlink">
    <!-- Generator: Sketch 56.2 (81672) - https://sketch.com -->
    <title>mutfak icon</title>
    <desc>Created with Sketch.</desc>
    <defs>
        <linearGradient x1="50%" y1="0%" x2="50%" y2="100%" id="linearGradient-1">
            <stop stop-color="#FF6122" offset="0%"></stop>
            <stop stop-color="#F3400E" offset="100%"></stop>
        </linearGradient>
    </defs>
    <g id="Page-1" stroke="none" stroke-width="1" fill="none" fill-rule="evenodd">
        <g id="mutfak-icon">
            <g id="Group">
                <rect id="Rectangle-Copy-10" fill="url(#linearGradient-1)" x="0" y="0" width="256" height="256" rx="28"></rect>
                <g id="Group-4-Copy-2" transform="translate(40.000000, 32.000000)" fill-rule="nonzero">
                    <g id="Group-2">
                        <path d="M49.2062827,43.3403932 L32.7136037,85.2971678 C32.0531395,86.6733705 32.0531395,89.5798386 31.9939232,92.1509434 C32.660294,146.800003 32.9934795,175.282363 32.9934795,177.598025 C32.9934795,181.071517 34.3795077,184.188161 38.6524758,183.51921 C41.5011211,183.073244 85.0209515,176.578377 169.211967,164.034609 C174.328398,163.586761 174.830519,161.332986 174.830519,158.608884 L175.260328,75.7287627 C175.260328,75.4461927 175.260328,72.2264151 173.449275,70.5660377 L136.537517,36.7048699 C135.657908,35.8961351 135.018191,36.2176802 134.318502,36.1981927 L50.3557725,42.0444687 C49.9659455,42.0444687 49.5561274,42.3075511 49.2062827,43.3403932 Z" id="Shape" fill="#FDFDFD"></path>
                        <path d="M126.556635,9.87115449 L140.125924,10.4063714 C140.125924,10.4063714 145.663466,10.2602145 146.023306,16.4475233 C146.433125,23.6384429 147.022863,33.6160874 147.022863,33.6160874 C147.022863,33.6160874 147.022863,33.6533024 147.018662,33.7134235 C147.779135,34.9553485 148.578786,36.1287102 148.882037,36.4612751 C148.882037,36.4612751 173.541091,62.8474677 175.210351,65.1567468 C176.17992,66.4916465 174.840515,67.0178113 174.000887,66.2577954 L134.758307,30.2739662 C134.358277,29.9625248 134.019596,29.5828521 133.758751,29.15343 L118.615473,3.55648461 C118.055721,2.09491559 119.305166,2.6795432 119.385131,2.92313803 L126.556635,9.87115449 Z" id="Combined-Shape" fill="#FDFDFD"></path>
                        <path d="M136.187672,119.809684 L136.177677,119.760965 C144.154136,119.838916 145.963333,123.502582 145.583502,129.007825 L144.683901,145.153291 C144.30407,151.165212 141.745205,155.569406 131.509749,157.333033 C129.970423,157.615443 128.408142,157.762192 126.841821,157.771503 C120.064829,157.771503 118.335597,154.176044 118.715428,148.826701 L119.714984,131.580187 C120.074825,125.246721 123.093485,120.696369 133.708773,119.887635 L136.187672,119.809684 Z M131.139913,145.97177 L131.189891,146.010745 L132.189447,145.932794 C134.228542,145.679456 134.678342,144.958415 134.678342,143.984036 L135.278076,132.905343 C135.278076,132.320715 135.058174,131.58993 133.628808,131.58993 L132.94911,131.58993 C130.840046,131.736087 130.390246,132.690979 130.390246,133.353557 L129.710548,144.578407 C129.630583,145.387142 129.860481,145.97177 131.139913,145.97177 Z" id="Combined-Shape" fill="#F95018"></path>
                        <path d="M88.5288278,95.0896802 L88.5488189,95.0896802 C97.284941,95.1676306 99.2640625,99.1820735 98.8442488,105.203738 L97.8446925,122.878979 C97.4148833,129.465784 94.6261212,134.25973 83.421095,136.208489 C81.7365613,136.517222 80.027337,136.680252 78.3133623,136.695678 C70.8966545,136.695678 68.9974976,132.739698 69.4173112,126.893422 L70.4868365,108.019694 C70.8966545,101.013907 74.1951903,96.0543158 85.8100346,95.1676306 L88.5288278,95.0896802 Z M83.0912415,123.785152 L83.0912415,123.765664 L84.2407312,123.67797 C86.4697418,123.444119 86.9695199,122.635384 86.9695199,121.592798 L87.6192315,109.461776 C87.6192315,108.818685 87.379338,108.019694 85.8100346,108.019694 L85.0703629,108.019694 C82.7613879,108.204826 82.2716053,109.237668 82.2716053,109.968453 L81.5219381,122.255376 C81.4419736,123.142062 81.6918626,123.785152 83.0912415,123.785152 Z" id="Combined-Shape" fill="#F95018"></path>
                        <path d="M121.943995,94.3101768 L113.707651,95.2163496 C111.608583,95.3722502 110.808938,96.4440675 110.199208,98.6559086 L93.2667246,159.466924 C92.7369598,161.600814 93.2667246,162.555706 94.9259881,162.555706 L95.7556198,162.555706 L104.561711,161.084393 C106.560823,160.714129 107.420442,159.544874 108.020176,157.186876 L124.023072,97.4379345 C124.552837,95.381994 124.023072,94.2809454 121.914008,94.2809454" id="Shape-4" fill="#F95018"></path>
                        <path d="M57.6825202,10.3479086 C57.6825202,10.3479086 59.7815884,5.13497915 59.3917615,4.77445879 C59.3917615,4.77445879 59.0719035,3.70264151 57.0028219,5.6514002 L47.3932591,14.7759093 C45.8510676,16.240257 44.6066954,17.9890966 43.7287142,19.9260576 L43.7287142,19.9260576 C41.2498145,25.2266812 37.7313763,33.1288977 34.8026764,39.7839086 L29.6549614,51.4082542 C28.1056491,54.9160199 27.1160884,52.0708322 27.1160884,52.0708322 L25.7666874,47.1989355 C25.1642668,45.0253599 24.4148784,42.3025982 23.6239696,39.4277986 C23.4044056,38.6297264 22.1062802,38.1886792 21.2560386,39.0188679 C12.2600319,47.4180179 5.62494878,53.4548441 2.55072464,57.2830189 C0.90230177,58.9433962 0.0780903363,60.2233287 0.0780903363,61.1228163 L0.0780903363,145.104572 C-0.035215119,145.822423 0.0909225829,146.556771 0.437930606,147.199488 C1.0076777,147.978991 23.6457416,178.175535 26.2005511,181.194657 C28.7553607,184.21378 29.5650112,180.823977 29.4750413,178.799524 L28.2755737,88.0644052 C28.2755737,88.0644052 28.0156891,87.3920834 28.7553607,85.4725561 L57.6825202,10.3479086 Z" id="Shape-6" fill="#FDFDFD"></path>
                        <path d="M27.0661106,18.961422 C27.0661106,18.961422 21.4785908,20.5983793 23.1878321,26.8246634 L27.9657112,44.1296405 C27.9657112,44.1296405 28.7153785,46.2927627 29.8948549,43.6229633 L42.4892644,15.190574 C42.4892644,15.190574 43.4888207,12.9787329 40.6700719,14.0018312 L27.0661106,18.961422 Z" id="Shape-7" fill="#FDFDFD"></path>
                        <path d="M62.8302352,6.71347368 C64.0602276,3.7424038 66.9017742,1.69978403 70.176974,1.43233764 L107.840256,1.10134124e-13 C111.171727,0.0273420838 114.258539,1.71006485 116.026622,4.4626574 L129.970432,29.4749752 C130.132658,29.7770919 130.228007,30.1090455 130.250308,30.4493545 C130.318365,31.7163354 129.320917,32.7976641 128.021297,32.8658153 L54.7638158,37.8936127 C54.4071468,37.922473 54.0483942,37.8725136 53.7142817,37.7474558 C53.1439856,37.5282049 52.6865443,37.096872 52.4427928,36.548537 C52.1990414,36.000202 52.1889915,35.3798827 52.4148585,34.8243178 L62.8302352,6.71347368 Z M109.709426,11.0981807 C110.75896,7.22989474 105.221418,8.34068719 105.221418,8.34068719 L74.774933,9.6658431 C65.5490283,9.31506653 69.6871914,13.6413108 69.6871914,13.6413108 L88.2289609,30.4980735 C91.3575721,33.0412036 93.1467779,30.4980735 93.1467779,30.4980735 L109.709426,11.0981807 Z" id="Shape-9" fill="#FDFDFD"></path>
                    </g>
                </g>
            </g>
        </g>
    </g>
</svg>
