<svg width="14" height="14" viewBox="0 0 14 14" fill="none" xmlns="http://www.w3.org/2000/svg">
    <path d="M7.00004 1.75C8.60694 1.75 10.1822 1.88536 11.7151 2.14531C12.026 2.19802 12.25 2.46957 12.25 2.78484V3.39384C12.25 3.74194 12.1117 4.07578 11.8656 4.32192L8.69692 7.49058C8.45078 7.73672 8.3125 8.07056 8.3125 8.41866V10.1263C8.3125 10.6235 8.03162 11.0779 7.58697 11.3003L5.6875 12.25V8.41866C5.6875 8.07056 5.54922 7.73672 5.30308 7.49058L2.13442 4.32192C1.88828 4.07578 1.75 3.74194 1.75 3.39384V2.78486C1.75 2.46958 1.97405 2.19803 2.28488 2.14532C3.8178 1.88537 5.39311 1.75 7.00004 1.75Z" stroke="#0F172A" stroke-linecap="round" stroke-linejoin="round"/>
</svg>
